<svg width="146" height="35" viewBox="0 0 146 35" fill="none" xmlns="http://www.w3.org/2000/svg">
<path d="M51.3149 28.7749V14.2199H51.6075L63.5615 28.7749H67.3232V7.40064H63.1435V21.919H62.8509L50.897 7.40064H47.1352V28.7749H51.3149ZM79.1517 29.1049C84.6689 29.1049 88.0545 25.9519 88.0545 20.6725C88.0545 15.4297 84.6689 12.2401 79.1517 12.2401C73.6763 12.2401 70.249 15.4297 70.249 20.6725C70.2908 25.9519 73.6345 29.1049 79.1517 29.1049ZM79.1517 26.0252C76.2259 26.0252 74.5541 24.0821 74.5541 20.6725C74.5541 17.2995 76.2259 15.3198 79.1517 15.3198C82.0775 15.3198 83.7494 17.2995 83.7494 20.6725C83.7494 24.0821 82.0775 26.0252 79.1517 26.0252ZM91.858 8.6105V12.68H88.9323V15.6131H91.858V24.4487C91.858 27.6017 93.5299 28.8483 97.7932 28.8483C98.5873 28.8483 99.3815 28.7749 100.008 28.6649V25.8053C99.5069 25.8419 99.1725 25.8786 98.5874 25.8786C96.8319 25.8786 96.0377 25.182 96.0377 23.5688V15.6131H100.008V12.68H96.0377V8.6105H91.858ZM102.516 28.7749H106.696V12.5701H102.516V28.7749ZM104.606 9.89369C105.985 9.89369 107.114 8.9038 107.114 7.69393C107.114 6.44741 105.985 5.45752 104.606 5.45752C103.227 5.45752 102.098 6.44741 102.098 7.69393C102.098 8.9038 103.227 9.89369 104.606 9.89369ZM118.148 29.1049C123.666 29.1049 127.051 25.9519 127.051 20.6725C127.051 15.4297 123.666 12.2401 118.148 12.2401C112.673 12.2401 109.246 15.4297 109.246 20.6725C109.246 25.9519 112.589 29.1049 118.148 29.1049ZM118.148 26.0252C115.223 26.0252 113.551 24.0821 113.551 20.6725C113.551 17.2995 115.223 15.3198 118.148 15.3198C121.032 15.3198 122.746 17.2995 122.746 20.6725C122.704 24.0821 121.032 26.0252 118.148 26.0252ZM129.517 28.7749H133.697V19.3526C133.697 16.9696 135.285 15.4664 137.751 15.4664C140.301 15.4664 141.471 16.7129 141.471 19.1693V28.7749H145.651V18.2894C145.651 14.4032 143.394 12.2401 139.298 12.2401C136.539 12.2401 134.7 13.34 133.822 15.1731H133.53V12.5701H129.475C129.517 12.5701 129.517 28.7749 129.517 28.7749Z" fill="white"/>
<path fill-rule="evenodd" clip-rule="evenodd" d="M7.05904 6.03259C8.27555 6.90239 8.71556 6.83372 10.9933 6.69638L32.4504 5.55191C32.9163 5.55191 32.5281 5.1399 32.3728 5.09412L28.8009 2.82806C28.1279 2.37028 27.1961 1.82093 25.462 1.95826L4.70367 3.30874C3.95306 3.37741 3.79776 3.72075 4.10836 3.97254L7.05904 6.03259ZM8.3532 10.4502V30.4098C8.3532 31.4857 8.94851 31.8748 10.3203 31.8061L33.8999 30.593C35.2717 30.5243 35.427 29.7918 35.427 28.922V9.09977C35.427 8.22997 35.0387 7.74929 34.2105 7.81796L9.5697 9.09977C8.66379 9.16844 8.3532 9.58045 8.3532 10.4502ZM31.6221 11.5261C31.7774 12.1212 31.6221 12.7392 30.9492 12.8079L29.8103 13.0139V27.7547C28.8268 28.2125 27.9209 28.4871 27.1444 28.4871C25.9279 28.4871 25.6173 28.1438 24.7113 27.1367L17.2829 16.8135V26.7933L19.6382 27.2511C19.6382 27.2511 19.6382 28.4642 17.7488 28.4642L12.5204 28.7389C12.3651 28.4642 12.5204 27.8005 13.038 27.6631L14.4099 27.3198V14.1355L12.5204 13.9981C12.3651 13.403 12.7533 12.5332 13.8145 12.4645L19.4312 12.1212L27.1702 22.5588V13.3343L25.2031 13.1283C25.0478 12.3959 25.669 11.8465 26.4196 11.7778L31.6221 11.5261ZM2.9695 1.47759L24.5819 0.0813291C27.222 -0.124676 27.9209 0.0126612 29.5774 1.08847L36.4623 5.36879C37.6011 6.10125 37.9894 6.30726 37.9894 7.10839V30.6159C37.9894 32.0808 37.3941 32.9506 35.2717 33.0879L10.1909 34.4384C8.58615 34.5071 7.83553 34.3011 7.00727 33.3626L1.90829 27.5258C1.00238 26.45 0.614136 25.6488 0.614136 24.7104V3.81231C0.614136 2.59917 1.23533 1.61492 2.9695 1.47759Z" fill="white"/>
</svg>
