<svg width="127" height="28" viewBox="0 0 127 28" fill="none" xmlns="http://www.w3.org/2000/svg">
<path fill-rule="evenodd" clip-rule="evenodd" d="M126.521 21.5633C121.265 29.4606 112.942 27.1691 110.442 25.3749C109.378 26.0147 107.513 27.417 105.025 27.255C99.7275 26.9104 97.8304 20.2007 97.8304 20.2007C97.8685 20.2275 96.2524 20.6949 95.379 20.6866C95.3677 22.6542 93.4486 27.3546 88.2693 27.2945C82.4573 27.2273 81.2758 19.5531 81.2758 19.5531C81.2758 19.5531 80.6974 20.2649 78.4983 20.9739C78.609 19.4622 78.5281 27.0644 71.5622 27.1761C66.0552 27.2646 64.5687 19.4348 64.5687 19.4348C64.5687 19.4348 63.6134 20.3143 61.7619 20.6194C61.8796 19.0831 61.6883 27.2019 54.7216 27.1761C50.0136 27.1588 48.4047 22.353 48.5298 21.686C48.6895 20.8359 46.9387 27.2957 42.3656 27.195C40.4784 27.1459 39.0714 25.9349 38.1886 24.3204C37.0067 25.5189 35.2908 27.195 33.3659 27.195C29.9106 27.195 28.3873 24.6337 28.6453 17.3179C28.6673 16.4502 28.5967 16.109 27.6234 15.9792C27.0393 15.8928 26.4411 15.7292 25.8081 15.643C25.6052 16.243 23.8845 26.9998 17.9676 27.204C15.9826 27.2725 14.8972 25.7485 14.0059 24.6174C12.6395 26.2194 10.8358 27.255 8.26626 27.255C3.91367 27.255 0.94812 24.1365 0.94812 20.2895C0.94812 16.4425 3.91367 13.3242 8.26626 13.3242C9.03584 13.3242 9.25188 13.422 9.95494 13.6038C8.50907 1.93646 11.9236 0.113027 14.9106 0.113027C17.7783 0.113027 22.6775 6.01204 15.7839 20.9751C17.3144 25.4381 20.6139 25.1857 22.1994 15.9982C22.5221 14.1307 21.6592 11.6105 23.0013 11.2588C25.4546 10.616 25.7149 12.5446 26.8652 12.866C28.0815 13.2056 28.7914 13.1724 29.9591 13.3885C31.9543 13.7339 32.7329 14.6838 32.4898 16.7996C32.1979 19.4767 31.6872 23.3732 33.2443 23.8481C34.3671 24.1931 36.4171 22.1293 36.7768 21.0001C37.1364 19.871 37.2116 19.4845 37.2435 18.6563C37.2922 16.8861 37.3532 15.5886 37.6938 14.2499C37.8396 13.7319 38.0057 13.3888 38.667 13.3654C39.2111 13.3531 40.2062 13.2079 40.6442 13.51C41.228 13.8988 41.1551 14.2933 41.088 15.3316C40.4091 30.1353 45.635 22.7452 47.1932 16.8279C46.6384 10.1369 47.0193 0.235551 51.7502 0.0694879C54.2106 -0.0168743 55.2983 1.73006 55.4179 3.03399C55.7564 6.71676 53.8607 12.8172 51.3677 16.9197C49.9429 25.2907 57.5974 26.9459 58.8214 20.2642C56.8188 19.4202 54.6544 16.0044 56.4156 14.3397C57.4039 13.4055 61.5177 14.7476 61.585 17.6748C63.6029 17.1965 63.8723 16.1867 63.9003 16.354C63.3456 9.66298 63.8601 0.235638 68.5913 0.0695734C71.0514 -0.0167888 72.1389 1.73015 72.2586 3.03407C72.597 6.71683 70.7014 12.8173 68.2087 16.9199C66.7837 25.2907 74.4383 26.946 75.6621 20.2643C74.1793 20.0107 71.0494 16.3775 72.8553 14.3398C73.8204 13.2509 77.9191 15.5154 78.378 17.7717C80.3165 17.2855 80.5797 16.3078 80.6075 16.4724C80.0527 9.78156 80.5672 0.354218 85.2983 0.188154C87.7584 0.101792 88.846 1.84873 88.9656 3.15265C89.304 6.83541 87.4084 12.936 84.9154 17.0385C83.4908 25.4095 91.1452 27.0644 92.3693 20.3827C90.3317 20.082 87.4359 16.2458 89.7666 14.2833C90.6978 13.4992 94.2558 15.5346 95.0887 17.8568C96.2459 17.8173 96.9663 17.4636 97.1207 17.4279C95.2732 9.57305 96.6486 0.148361 101.738 0.0696886C104.489 0.0272078 107.178 1.38773 105.998 8.8606C104.871 15.9906 100.821 18.9827 100.83 19.0285C101.066 19.8827 103.144 27.0312 108.378 23.2594C108.107 22.7157 107.836 22.1603 107.684 21.4874C106.817 17.5677 108.52 13.1404 113.151 12.4249C115.805 12.0149 118.304 13.1598 118.699 15.741C119.35 19.9645 115.047 23.0233 113.41 23.6868C112.677 23.3178 120.054 27.5107 124.431 19.108C124.685 18.6282 124.991 18.6689 125.388 18.9162C125.668 19.0908 127.263 20.4299 126.521 21.5633ZM11.4324 19.2517C11.2096 18.6615 10.7525 17.361 10.5909 16.7976C9.70064 16.1114 9.06522 16 7.92252 16C5.38309 16 3.88842 18.0809 3.88842 20.3247C3.88842 22.5684 5.51675 24.6496 8.05619 24.6496C10.2569 24.6496 11.9319 23.3235 12.4429 21.4462C12.0852 20.7143 11.7304 20.0417 11.4324 19.2517ZM14.8484 3.20145C13.0641 3.20145 12.4588 6.97401 12.5762 10.1924C12.6801 13.0378 13.5772 15.5428 14.0426 16.6653C14.1608 16.8059 14.1388 16.7144 14.2443 16.8636C17.3425 10.8472 16.0575 3.20145 14.8484 3.20145ZM52.005 3.31996C49.6988 3.08554 49.7137 11.6001 50 13.51C51.1978 11.8118 53.2784 3.77721 52.005 3.31996ZM68.8456 3.31996C66.5394 3.08554 66.5543 11.6001 66.8408 13.51C68.0384 11.8118 70.1192 3.77721 68.8456 3.31996ZM85.5529 3.43842C83.2465 3.204 83.2614 11.7186 83.5479 13.6287C84.7455 11.9303 86.8263 3.89564 85.5529 3.43842ZM101.993 2.82153C98.3994 3.46102 99.2361 14.0789 99.7818 15.9412C104.014 10.789 104.101 2.628 101.993 2.82153ZM115.459 16.0903C115.276 15.4133 114.363 15.0515 113.732 15.1407C111.928 15.359 110.178 17.3505 110.855 20.3824C111.006 21.0576 111.384 21.6792 111.377 21.6585C115.415 19.2577 115.758 17.3659 115.459 16.0903ZM39.3743 11.0218C38.8586 11.0219 38.3546 10.8864 37.9258 10.6326C37.497 10.3787 37.1628 10.0179 36.9653 9.59571C36.7679 9.17351 36.7163 8.7089 36.8169 8.26067C36.9173 7.81243 37.1657 7.40069 37.5303 7.07751C37.8949 6.75433 38.3594 6.53425 38.8651 6.44507C39.3708 6.3559 39.8951 6.40164 40.3715 6.57654C40.8479 6.75143 41.255 7.04761 41.5415 7.42761C41.8279 7.80761 41.9808 8.25437 41.9808 8.71137C41.9808 9.01476 41.9135 9.31519 41.7824 9.59549C41.6515 9.8758 41.4595 10.1305 41.2174 10.345C40.9753 10.5596 40.6881 10.7298 40.3718 10.8459C40.0556 10.962 39.7167 11.0218 39.3743 11.0218Z" fill="white"/>
</svg>
