<svg width="35" height="32" viewBox="0 0 35 32" fill="none" xmlns="http://www.w3.org/2000/svg">
<path d="M26.7592 10.3496V6.60661C27.3173 6.37558 27.7899 6.00876 28.1219 5.54887C28.4538 5.08898 28.6315 4.55495 28.6343 4.00901V3.92164C28.6319 3.15869 28.289 2.42756 27.6802 1.88807C27.0715 1.34858 26.2466 1.04458 25.3858 1.04254H25.2872C24.4264 1.04458 23.6014 1.34858 22.9927 1.88807C22.384 2.42756 22.041 3.15869 22.0387 3.92164V4.00901C22.0414 4.55495 22.2191 5.08898 22.5511 5.54887C22.8831 6.00876 23.3556 6.37558 23.9138 6.60661V10.3496C22.3091 10.5671 20.7978 11.1565 19.5328 12.0581L7.93634 4.06143C8.01889 3.79763 8.06306 3.52557 8.06777 3.25186C8.06864 2.60947 7.85456 1.98128 7.4526 1.44673C7.05064 0.912174 6.47885 0.495267 5.80955 0.248727C5.14025 0.00218587 4.40349 -0.0629153 3.69244 0.0616553C2.98139 0.186226 2.32799 0.494874 1.81486 0.948568C1.30174 1.40226 0.951932 1.98063 0.809679 2.61052C0.667427 3.24042 0.739115 3.89355 1.01569 4.48734C1.29226 5.08112 1.76128 5.58888 2.36346 5.94641C2.96563 6.30394 3.6739 6.49518 4.39871 6.49595C5.03535 6.49385 5.66015 6.34319 6.21024 6.05913L17.6117 13.9257C16.5848 15.2989 16.049 16.9146 16.0744 18.5619C16.0998 20.2091 16.6852 21.8113 17.7541 23.1591L14.2844 26.2343C14.0058 26.1557 13.7158 26.1138 13.4235 26.11C12.8278 26.11 12.2455 26.2666 11.7502 26.5599C11.2549 26.8532 10.8688 27.2701 10.6409 27.7579C10.4129 28.2457 10.3533 28.7824 10.4695 29.3002C10.5857 29.818 10.8725 30.2937 11.2938 30.667C11.715 31.0403 12.2517 31.2946 12.8359 31.3976C13.4202 31.5006 14.0258 31.4477 14.5761 31.2457C15.1265 31.0436 15.5969 30.7015 15.9278 30.2625C16.2588 29.8235 16.4354 29.3074 16.4354 28.7794C16.4314 28.5204 16.3842 28.2633 16.2952 28.0165L19.7277 24.9743C20.8482 25.7328 22.1494 26.2544 23.532 26.4993C24.9146 26.7441 26.3421 26.7058 27.7054 26.3871C29.0687 26.0685 30.3319 25.478 31.3985 24.6607C32.465 23.8434 33.3068 22.8209 33.8595 21.6713C34.4123 20.5217 34.6613 19.2754 34.5877 18.0275C34.5141 16.7796 34.1197 15.5631 33.4347 14.4709C32.7497 13.3786 31.7922 12.4395 30.6353 11.7253C29.4784 11.0111 28.1526 10.5405 26.7592 10.3496ZM25.3376 22.6621C24.3983 22.6621 23.4802 22.4152 22.6992 21.9527C21.9182 21.4902 21.3095 20.8329 20.9501 20.0638C20.5907 19.2947 20.4966 18.4484 20.6798 17.632C20.8631 16.8155 21.3154 16.0655 21.9795 15.4769C22.6437 14.8883 23.4899 14.4874 24.4111 14.325C25.3323 14.1626 26.2872 14.2459 27.1549 14.5645C28.0227 14.8831 28.7644 15.4225 29.2862 16.1147C29.808 16.8069 30.0866 17.6206 30.0866 18.4531C30.0866 19.5694 29.5862 20.6399 28.6956 21.4293C27.805 22.2186 26.5971 22.6621 25.3376 22.6621Z" fill="white"/>
</svg>
